# Blender v3.0.1 OBJ File: ''
# www.blender.org
mtllib trackpiece.mtl
o Cube
v 0.500840 0.199820 0.000000
v 0.500840 0.000000 0.000000
v 0.500840 0.199820 2.000000
v 0.500840 0.000000 2.000000
v -0.500840 0.199820 0.000000
v -0.500840 0.000000 0.000000
v -0.500840 0.199820 2.000000
v -0.500840 0.000000 2.000000
v -0.616205 0.000000 0.000000
v -0.616205 0.000000 2.000000
v 0.616205 0.199820 0.000000
v 0.616205 0.000000 0.000000
v -0.616205 0.199820 2.000000
v 0.616205 0.199820 2.000000
v 0.616205 0.000000 2.000000
v -0.616205 0.199820 0.000000
vt 0.375000 0.500000
vt 0.625000 0.500000
vt 0.625000 0.500000
vt 0.375000 0.500000
vt 0.375000 0.750000
vt 0.625000 0.750000
vt 0.375000 0.750000
vt 0.625000 0.750000
vt 0.375000 0.250000
vt 0.625000 0.250000
vt 0.875000 0.750000
vt 0.375000 1.000000
vt 0.375000 0.000000
vt 0.625000 0.000000
vt 0.625000 0.250000
vt 0.375000 0.250000
vt 0.125000 0.500000
vt 0.125000 0.750000
vt 0.125000 0.750000
vt 0.125000 0.500000
vt 0.875000 0.500000
vt 0.875000 0.500000
vt 0.875000 0.750000
vt 0.625000 1.000000
vt 0.625000 1.000000
vt 0.375000 1.000000
vn 0.0000 0.0000 -1.0000
vn -1.0000 0.0000 0.0000
vn 0.0000 0.0000 1.0000
vn 1.0000 0.0000 0.0000
vn 0.0000 -1.0000 0.0000
vn 0.0000 1.0000 0.0000
usemtl Material
s off
f 2/1/1 1/2/1 11/3/1 12/4/1
f 2/1/2 4/5/2 3/6/2 1/2/2
f 3/6/3 4/5/3 15/7/3 14/8/3
f 6/9/4 5/10/4 7/11/4 8/12/4
f 10/13/2 13/14/2 16/15/2 9/16/2
f 12/4/4 11/3/4 14/8/4 15/7/4
f 4/5/5 2/1/5 12/4/5 15/7/5
f 6/17/5 8/18/5 10/19/5 9/20/5
f 7/11/6 5/21/6 16/22/6 13/23/6
f 1/2/6 3/6/6 14/8/6 11/3/6
f 5/10/1 6/9/1 9/16/1 16/15/1
f 8/12/3 7/24/3 13/25/3 10/26/3
