# Blender v3.0.1 OBJ File: 'streetlamps.blend'
# www.blender.org
mtllib concrete.mtl
o Cube.001_Cube.004
v -0.031192 0.361996 -0.220139
v 0.031192 0.361996 -0.220139
v 0.031192 0.398466 -0.201764
v -0.031192 0.749486 -0.220139
v 0.031192 0.749486 -0.220139
v -0.031192 0.398466 -0.201764
v -0.099939 -0.267856 -0.220139
v 0.099939 -0.267856 -0.220139
v -0.067343 0.881763 -0.220139
v -0.099939 0.849168 -0.220139
v 0.099939 0.849168 -0.220139
v 0.067343 0.881763 -0.220139
v 0.031192 0.713016 -0.201764
v -0.031192 0.713016 -0.201764
v -0.031192 0.361996 -0.087596
v 0.031192 0.361996 -0.087596
v 0.031192 0.398466 -0.105970
v -0.031192 0.749486 -0.087596
v 0.031192 0.749486 -0.087596
v -0.031192 0.398466 -0.105970
v -0.099939 -0.267856 -0.087596
v 0.099939 -0.267856 -0.087596
v -0.067343 0.881763 -0.087596
v -0.099939 0.849168 -0.087596
v 0.099939 0.849168 -0.087596
v 0.067343 0.881763 -0.087596
v 0.031192 0.713016 -0.105970
v -0.031192 0.713016 -0.105970
vt -0.384826 -1.401586
vt -0.195379 -1.401586
vt -0.195379 0.195011
vt -0.384827 0.195010
vt 0.659393 -1.401586
vt 0.659393 -0.847735
vt 0.633130 -0.899863
vt 0.633130 -1.349458
vt -0.195379 0.519298
vt -0.384827 0.519298
vt -0.384827 0.453410
vt -0.195379 0.453410
vt -0.384827 0.260899
vt -0.195379 0.260899
vt -0.195379 2.115894
vt -0.384826 2.115894
vt -0.007948 -0.501319
vt -0.097117 -0.501319
vt 0.090313 -1.401586
vt -0.007949 0.052531
vt 0.090313 0.195009
vt 0.043723 0.241600
vt -0.097117 0.052531
vt -0.148788 0.241600
vt 0.465173 -1.343216
vt 0.465173 -0.893620
vt 0.376005 -0.893620
vt 0.376005 -1.343216
vt 0.376005 -1.401586
vt 0.465173 -1.401586
vt 0.465173 -0.835250
vt 0.376005 -0.835250
vt 0.633130 -1.401586
vt 0.633130 -0.847735
vt 0.606867 -0.899863
vt 0.606867 -1.349458
vt 0.606867 -0.847731
vt 0.580604 -0.899859
vt 0.580604 -1.349458
vt 0.606867 -1.401586
vt 0.188575 -0.501319
vt 0.090313 -1.401585
vt 0.376005 -1.401586
vt 0.277743 -0.501318
vt 0.188575 0.052532
vt 0.136903 0.241600
vt 0.090313 0.195010
vt 0.277743 0.052532
vt 0.376005 0.195010
vt 0.329415 0.241600
vt 0.465173 -1.343215
vt 0.554341 -1.343215
vt 0.554341 -0.893620
vt 0.465173 -0.893620
vt 0.554341 -1.401586
vt 0.465173 -1.401586
vt 0.465173 -0.835250
vt 0.554341 -0.835250
vt 0.580604 -0.847732
vt 0.554341 -0.899860
vt 0.554341 -1.349458
vt 0.580604 -1.401586
vt -0.195379 2.401586
vt -0.384826 2.401586
vn 1.0000 0.0000 0.0000
vn -1.0000 0.0000 0.0000
vn -0.7071 0.7071 0.0000
vn 0.7071 0.7071 0.0000
vn 0.0000 1.0000 0.0000
vn 0.0000 0.0000 -1.0000
vn 0.0000 0.4499 -0.8931
vn 0.0000 -0.4499 -0.8931
vn 0.0000 0.0000 1.0000
vn 0.0000 0.4499 0.8931
vn 0.0000 -0.4499 0.8931
vn 0.0000 -1.0000 0.0000
usemtl Material.004
s off
f 22/1/1 8/2/1 11/3/1 25/4/1
f 5/5/2 2/6/2 3/7/2 13/8/2
f 10/9/3 24/10/3 23/11/3 9/12/3
f 26/13/4 25/4/4 11/3/4 12/14/4
f 26/13/5 12/14/5 9/12/5 23/11/5
f 7/15/2 21/16/2 24/10/2 10/9/2
f 1/17/6 2/18/6 8/2/6 7/19/6
f 4/20/6 10/21/6 9/22/6
f 5/23/6 12/24/6 11/3/6
f 5/23/6 4/20/6 9/22/6 12/24/6
f 4/20/6 1/17/6 7/19/6 10/21/6
f 2/18/6 5/23/6 11/3/6 8/2/6
f 6/25/6 14/26/6 13/27/6 3/28/6
f 2/29/7 1/30/7 6/25/7 3/28/7
f 4/31/8 5/32/8 13/27/8 14/26/8
f 1/33/1 4/34/1 14/35/1 6/36/1
f 19/37/2 27/38/2 17/39/2 16/40/2
f 15/41/9 21/42/9 22/43/9 16/44/9
f 18/45/9 23/46/9 24/47/9
f 19/48/9 25/49/9 26/50/9
f 19/48/9 26/50/9 23/46/9 18/45/9
f 18/45/9 24/47/9 21/42/9 15/41/9
f 16/44/9 22/43/9 25/49/9 19/48/9
f 20/51/9 17/52/9 27/53/9 28/54/9
f 16/55/10 17/52/10 20/51/10 15/56/10
f 18/57/11 28/54/11 27/53/11 19/58/11
f 15/59/1 20/60/1 28/61/1 18/62/1
f 8/63/12 22/64/12 21/16/12 7/15/12
