# Blender v3.0.1 OBJ File: 'streetlamps.blend'
# www.blender.org
mtllib lamp.mtl
o Cube.002
v 2.445684 5.238072 -0.053741
v 1.597150 5.206269 -0.053741
v 1.597150 5.206269 0.009017
v 2.445684 5.238072 0.009017
v 1.597604 5.188069 0.017786
v 2.446139 5.219872 0.017786
v 1.597716 5.183574 0.037489
v 2.446251 5.215377 0.037489
v 1.597402 5.196169 0.053289
v 2.445936 5.227972 0.053289
v 1.596898 5.216370 0.053289
v 2.445433 5.248172 0.053289
v 1.596584 5.228964 0.037489
v 2.445118 5.260767 0.037489
v 1.596696 5.224469 0.017786
v 2.445230 5.256272 0.017786
v 1.597604 5.188069 -0.044972
v 2.446139 5.219872 -0.044972
v 1.597716 5.183574 -0.025269
v 2.446251 5.215377 -0.025269
v 1.597402 5.196169 -0.009468
v 2.445936 5.227972 -0.009468
v 1.596898 5.216370 -0.009468
v 2.445433 5.248172 -0.009468
v 1.596584 5.228964 -0.025269
v 2.445118 5.260767 -0.025269
v 1.596696 5.224469 -0.044972
v 2.445230 5.256272 -0.044972
vt 0.166479 0.999665
vt 0.166484 0.000334
vt 0.190265 0.000602
vt 0.190257 0.999933
vt 0.071349 0.999516
vt 0.071350 0.000185
vt 0.095133 0.000000
vt 0.095133 0.999331
vt 0.214048 0.000668
vt 0.214041 1.000000
vt 0.047567 0.999814
vt 0.047571 0.000484
vt 0.237831 0.000483
vt 0.237824 0.999814
vt 0.023783 0.999999
vt 0.023789 0.000669
vt 0.261609 0.000185
vt 0.261607 0.999517
vt 0.118918 0.999397
vt 0.118917 0.000066
vt 0.142697 0.000335
vt 0.142699 0.999665
vt 0.000000 0.999933
vt 0.000006 0.000603
vt 0.285393 0.000000
vt 0.285390 0.999331
vt 0.166479 0.000603
vt 0.166479 0.999933
vt 0.309176 0.000066
vt 0.309176 0.999398
vt 0.332957 0.000334
vt 0.332957 0.999666
vn 0.0001 -0.0034 -1.0000
vn -0.0001 0.0034 -1.0000
vn 0.0292 -0.7800 -0.6251
vn 0.0293 -0.7826 -0.6217
vn -0.0161 0.4308 0.9023
vn -0.0163 0.4364 0.8996
vn -0.0365 0.9744 0.2217
vn -0.0365 0.9741 0.2232
vn 0.0365 -0.9741 0.2232
vn 0.0365 -0.9744 0.2217
vn 0.0163 -0.4364 0.8996
vn 0.0161 -0.4308 0.9023
vn -0.0292 0.7800 -0.6251
vn -0.0293 0.7826 -0.6217
usemtl Material
s 1
f 3/1/1 4/2/2 6/3/3 5/4/4
f 23/5/5 24/6/6 26/7/7 25/8/8
f 5/4/4 6/3/3 8/9/9 7/10/10
f 21/11/11 22/12/12 24/6/6 23/5/5
f 7/10/10 8/9/9 10/13/12 9/14/11
f 19/15/10 20/16/9 22/12/12 21/11/11
f 9/14/11 10/13/12 12/17/6 11/18/5
f 27/19/13 28/20/14 1/21/2 2/22/1
f 17/23/4 18/24/3 20/16/9 19/15/10
f 11/18/5 12/17/6 14/25/7 13/26/8
f 2/22/1 1/21/2 18/27/3 17/28/4
f 13/26/8 14/25/7 16/29/14 15/30/13
f 25/8/8 26/7/7 28/20/14 27/19/13
f 15/30/13 16/29/14 4/31/2 3/32/1
