# Blender v3.0.1 OBJ File: 'streetlamps.blend'
# www.blender.org
mtllib wood.mtl
o Cube.003_Cube.005
v 0.000000 4.899484 -0.070000
v 0.041145 4.879400 -0.056631
v 0.066574 4.866988 -0.021631
v 0.066574 4.866988 0.021631
v 0.041145 4.879400 0.056631
v -0.000000 4.899484 0.070000
v -0.041145 4.919568 0.056631
v -0.066574 4.931980 0.021631
v -0.066574 4.931980 -0.021631
v -0.041145 4.919568 -0.056631
v 0.000000 0.000000 -0.070000
v 0.041145 0.000000 -0.056631
v 0.066574 0.000000 -0.021631
v 0.066574 0.000000 0.021631
v 0.041145 0.000000 0.056631
v -0.000000 0.000000 0.070000
v -0.041145 0.000000 0.056631
v -0.066574 0.000000 0.021631
v -0.066574 0.000000 -0.021631
v -0.041145 0.000000 -0.056631
v 0.036379 4.373154 -0.073357
v 0.079761 4.373154 -0.044459
v 0.095608 4.373154 0.001421
v 0.077868 4.373154 0.046758
v 0.033316 4.373154 0.074235
v -0.021029 4.373154 0.073357
v -0.064411 4.373154 0.044459
v -0.080258 4.373154 -0.001421
v -0.062518 4.373154 -0.046758
v -0.017967 4.373154 -0.074235
v 0.036379 4.651929 -0.073357
v 0.079761 4.651929 -0.044459
v 0.095608 4.651929 0.001421
v 0.077868 4.651929 0.046758
v 0.033316 4.651929 0.074235
v -0.021029 4.651929 0.073357
v -0.064411 4.651929 0.044459
v -0.080258 4.651929 -0.001421
v -0.062518 4.651929 -0.046758
v -0.017967 4.651929 -0.074235
vt 0.326331 -4.214693
vt 0.326322 5.203525
vt 0.285363 5.203520
vt 0.285374 -4.214696
vt 0.694942 -4.214696
vt 0.694950 5.203523
vt 0.653992 5.203527
vt 0.653986 -4.214693
vt 0.613033 5.203528
vt 0.613029 -4.214689
vt 0.572074 5.203531
vt 0.572072 -4.214688
vt 0.531116 5.203531
vt 0.531115 -4.214687
vt 0.490157 5.203531
vt 0.490158 -4.214686
vt 0.449198 5.203531
vt 0.449201 -4.214687
vt 0.408239 5.203528
vt 0.408244 -4.214688
vt 0.428024 0.452173
vt 0.264571 0.499900
vt 0.101119 0.452173
vt 0.000100 0.327223
vt 0.000100 0.172777
vt 0.101119 0.047827
vt 0.264571 0.000100
vt 0.428024 0.047827
vt 0.529042 0.172777
vt 0.529042 0.327223
vt 0.367281 5.203527
vt 0.367287 -4.214690
vt 0.475438 0.827223
vt 0.384657 0.952173
vt 0.237769 0.999900
vt 0.090882 0.952173
vt 0.000100 0.827223
vt 0.000100 0.672777
vt 0.090882 0.547827
vt 0.237769 0.500100
vt 0.384657 0.547827
vt 0.475438 0.672777
vt 0.475438 0.827223
vt 0.384657 0.952173
vt 0.237769 0.999900
vt 0.090882 0.952173
vt 0.000100 0.827223
vt 0.000100 0.672777
vt 0.090882 0.547827
vt 0.237769 0.500100
vt 0.384657 0.547827
vt 0.475438 0.672777
vt 0.475438 0.827223
vt 0.384657 0.952173
vt 0.237769 0.999900
vt 0.090882 0.952173
vt 0.000100 0.827223
vt 0.000100 0.672777
vt 0.090882 0.547827
vt 0.237769 0.500100
vt 0.384657 0.547827
vt 0.475438 0.672777
vn 0.3090 0.0000 -0.9511
vn 0.8090 0.0000 -0.5878
vn 1.0000 0.0000 0.0000
vn 0.8090 0.0000 0.5878
vn 0.3090 0.0000 0.9511
vn -0.3090 0.0000 0.9511
vn -0.8090 0.0000 0.5878
vn -1.0000 0.0000 0.0000
vn 0.4387 0.8987 0.0000
vn -0.8090 0.0000 -0.5878
vn -0.3090 0.0000 -0.9511
vn 0.0000 -1.0000 0.0000
usemtl Material.001
s off
f 11/1/1 1/2/1 2/3/1 12/4/1
f 12/5/2 2/6/2 3/7/2 13/8/2
f 13/8/3 3/7/3 4/9/3 14/10/3
f 14/10/4 4/9/4 5/11/4 15/12/4
f 15/12/5 5/11/5 6/13/5 16/14/5
f 16/14/6 6/13/6 7/15/6 17/16/6
f 17/16/7 7/15/7 8/17/7 18/18/7
f 18/18/8 8/17/8 9/19/8 19/20/8
f 2/21/9 1/22/9 10/23/9 9/24/9 8/25/9 7/26/9 6/27/9 5/28/9 4/29/9 3/30/9
f 19/20/10 9/19/10 10/31/10 20/32/10
f 20/32/11 10/31/11 1/2/11 11/1/11
f 20/33/12 11/34/12 12/35/12 13/36/12 14/37/12 15/38/12 16/39/12 17/40/12 18/41/12 19/42/12
f 30/43/12 21/44/12 22/45/12 23/46/12 24/47/12 25/48/12 26/49/12 27/50/12 28/51/12 29/52/12
f 40/53/12 31/54/12 32/55/12 33/56/12 34/57/12 35/58/12 36/59/12 37/60/12 38/61/12 39/62/12
