# Blender v3.2.1 OBJ File: 'jepgameready.blend'
# www.blender.org
mtllib jep2.mtl
o Cube.001
v -0.105617 -0.000000 -0.121830
v -0.105617 -0.060915 -0.105508
v -0.105617 -0.105507 -0.060915
v -0.105617 -0.121829 0.000000
v -0.105617 -0.105507 0.060915
v -0.105617 -0.060915 0.105507
v -0.105617 0.000000 0.121829
v -0.105617 0.060915 0.105507
v -0.105617 0.105507 0.060915
v -0.105617 0.121829 0.000000
v -0.105617 0.105507 -0.060915
v -0.105617 0.060915 -0.105508
v -0.076935 0.077605 -0.134417
v -0.076935 0.134417 -0.077605
v -0.076935 0.155211 0.000000
v -0.076935 0.134417 0.077605
v -0.076935 0.077605 0.134416
v -0.076935 0.000000 0.155211
v -0.076935 -0.077605 0.134416
v -0.076935 -0.134416 0.077605
v -0.076935 -0.155211 0.000000
v -0.076935 -0.134416 -0.077606
v -0.076935 -0.077605 -0.134417
v -0.076935 -0.000000 -0.155211
v -0.076935 -0.000000 -0.248887
v -0.052844 -0.000000 -0.273827
v 0.105617 -0.000000 -0.248887
v 0.081526 -0.000000 -0.273827
v -0.076935 -0.124443 -0.215542
v -0.052844 -0.136914 -0.237141
v 0.105617 -0.124443 -0.215542
v 0.081526 -0.136914 -0.237141
v -0.076935 -0.215542 -0.124444
v -0.052844 -0.237141 -0.136914
v 0.105617 -0.215542 -0.124444
v 0.081526 -0.237141 -0.136914
v -0.076935 -0.248886 0.000000
v -0.052844 -0.273827 0.000000
v 0.105617 -0.248886 0.000000
v 0.081526 -0.273827 0.000000
v -0.076935 -0.215542 0.124443
v -0.052844 -0.237141 0.136914
v 0.105617 -0.215542 0.124443
v 0.081526 -0.237141 0.136914
v -0.076935 -0.124443 0.215542
v -0.052844 -0.136914 0.237141
v 0.105617 -0.124443 0.215542
v 0.081526 -0.136914 0.237141
v -0.076935 0.000000 0.248886
v -0.052844 0.000000 0.273827
v 0.105617 0.000000 0.248886
v 0.081526 0.000000 0.273827
v -0.076935 0.124443 0.215542
v -0.052844 0.136914 0.237141
v 0.105617 0.124443 0.215542
v 0.081526 0.136914 0.237141
v -0.076935 0.215542 0.124443
v -0.052844 0.237141 0.136914
v 0.105617 0.215542 0.124443
v 0.081526 0.237141 0.136914
v -0.076935 0.248886 0.000000
v -0.052844 0.273827 0.000000
v 0.105617 0.248886 0.000000
v 0.081526 0.273827 0.000000
v -0.076935 0.215542 -0.124443
v -0.052844 0.237141 -0.136913
v 0.105617 0.215542 -0.124443
v 0.081526 0.237141 -0.136913
v -0.076935 0.124443 -0.215542
v -0.052844 0.136914 -0.237141
v 0.105617 0.124443 -0.215542
v 0.081526 0.136914 -0.237141
vt 0.160538 0.624563
vt 0.160538 0.692767
vt 0.142339 0.692767
vt 0.142339 0.624563
vt 0.215321 0.626456
vt 0.215321 0.694660
vt 0.197123 0.694660
vt 0.197123 0.626456
vt 0.178925 0.694660
vt 0.178925 0.626455
vt 0.160727 0.694660
vt 0.160727 0.626455
vt 0.142529 0.694660
vt 0.142529 0.626455
vt 0.251529 0.624563
vt 0.251529 0.692767
vt 0.233330 0.692767
vt 0.233330 0.624563
vt 0.215132 0.692767
vt 0.215132 0.624563
vt 0.196934 0.692767
vt 0.196934 0.624563
vt 0.178736 0.692767
vt 0.178736 0.624563
vt 0.233520 0.626455
vt 0.233520 0.694660
vt 0.167953 0.128826
vt 0.200075 0.165787
vt 0.181080 0.203740
vt 0.161057 0.180563
vt 0.218916 0.231079
vt 0.218232 0.304853
vt 0.199057 0.368070
vt 0.166540 0.402916
vt 0.129697 0.402808
vt 0.097931 0.365608
vt 0.079747 0.301882
vt 0.080459 0.228544
vt 0.099412 0.165294
vt 0.132122 0.129857
vt 0.169077 0.130018
vt 0.200640 0.167286
vt 0.251718 0.626455
vt 0.251718 0.694660
vt 0.169982 0.425726
vt 0.127015 0.424498
vt 0.129980 0.404523
vt 0.167301 0.404979
vt 0.229034 0.225704
vt 0.228527 0.310736
vt 0.091017 0.380812
vt 0.098317 0.366714
vt 0.207948 0.152751
vt 0.070506 0.308160
vt 0.080450 0.302813
vt 0.171798 0.110558
vt 0.070680 0.224359
vt 0.080698 0.229472
vt 0.129495 0.109463
vt 0.091485 0.151284
vt 0.098932 0.165681
vt 0.092028 0.150531
vt 0.128095 0.108920
vt 0.130915 0.128885
vt 0.070388 0.223099
vt 0.170525 0.108686
vt 0.069688 0.307185
vt 0.207368 0.150900
vt 0.090607 0.380208
vt 0.228667 0.224261
vt 0.218602 0.229870
vt 0.127100 0.422645
vt 0.228667 0.309149
vt 0.218507 0.303995
vt 0.169036 0.422492
vt 0.207527 0.383274
vt 0.199997 0.368536
vt 0.206166 0.383228
vt 0.106341 0.243357
vt 0.106214 0.289418
vt 0.117513 0.329203
vt 0.137941 0.180566
vt 0.180854 0.330064
vt 0.192568 0.290010
vt 0.137300 0.352632
vt 0.160562 0.353136
vt 0.118015 0.203629
vt 0.192638 0.243772
vt 0.158309 0.201410
vt 0.140794 0.201321
vt 0.182048 0.284443
vt 0.182174 0.249451
vt 0.116634 0.283967
vt 0.125145 0.314299
vt 0.125596 0.218727
vt 0.173435 0.219088
vt 0.140242 0.331878
vt 0.157775 0.331898
vt 0.173141 0.314702
vt 0.116886 0.249085
vn 0.0000 0.2588 -0.9659
vn 0.0000 -0.9659 -0.2588
vn 0.0000 -0.9659 0.2588
vn 0.0000 -0.7071 0.7071
vn 0.0000 -0.2588 0.9659
vn 0.0000 0.2588 0.9659
vn 0.0000 0.7071 0.7071
vn 0.0000 0.9659 0.2588
vn 0.0000 0.9659 -0.2588
vn 0.0000 0.7071 -0.7071
vn 0.0000 -0.7071 -0.7071
vn -1.0000 0.0000 0.0000
vn 1.0000 -0.0000 0.0000
vn 0.0000 -0.2588 -0.9659
vn -0.7071 -0.1830 -0.6830
vn 0.7071 -0.1830 -0.6830
vn -0.7071 -0.5000 -0.5000
vn 0.7071 -0.5000 -0.5000
vn -0.7071 -0.6830 -0.1830
vn 0.7071 -0.6830 -0.1830
vn -0.7071 -0.6830 0.1830
vn 0.7071 -0.6830 0.1830
vn -0.7071 -0.5000 0.5000
vn 0.7071 -0.5000 0.5000
vn -0.7071 -0.1830 0.6830
vn 0.7071 -0.1830 0.6830
vn -0.7071 0.1830 0.6830
vn 0.7071 0.1830 0.6830
vn -0.7071 0.5000 0.5000
vn 0.7071 0.5000 0.5000
vn -0.7071 0.6830 0.1830
vn 0.7071 0.6830 0.1830
vn -0.7071 0.6830 -0.1830
vn 0.7071 0.6830 -0.1830
vn -0.7071 0.5000 -0.5000
vn 0.7071 0.5000 -0.5000
vn -0.7071 0.1830 -0.6830
vn 0.7071 0.1830 -0.6830
vn -0.7472 0.1720 0.6420
vn -0.7472 0.6420 -0.1720
vn -0.7472 -0.6420 -0.1720
vn -0.7472 -0.1720 0.6420
vn -0.7472 0.6420 0.1720
vn -0.7472 -0.4700 -0.4700
vn -0.7472 0.1720 -0.6420
vn -0.7472 -0.4700 0.4700
vn -0.7472 0.4700 0.4700
vn -0.7472 -0.1720 -0.6420
vn -0.7472 0.4700 -0.4700
vn -0.7472 -0.6420 0.1720
usemtl Material.001
s off
f 70/1/1 72/2/1 28/3/1 26/4/1
f 34/5/2 36/6/2 40/7/2 38/8/2
f 38/8/3 40/7/3 44/9/3 42/10/3
f 42/10/4 44/9/4 48/11/4 46/12/4
f 46/12/5 48/11/5 52/13/5 50/14/5
f 50/15/6 52/16/6 56/17/6 54/18/6
f 54/18/7 56/17/7 60/19/7 58/20/7
f 58/20/8 60/19/8 64/21/8 62/22/8
f 62/22/9 64/21/9 68/23/9 66/24/9
f 66/24/10 68/23/10 72/2/10 70/1/10
f 30/25/11 32/26/11 36/6/11 34/5/11
f 53/27/12 57/28/12 16/29/12 17/30/12
f 31/31/13 27/32/13 71/33/13 67/34/13 63/35/13 59/36/13 55/37/13 51/38/13 47/39/13 43/40/13 39/41/13 35/42/13
f 26/43/14 28/44/14 32/26/14 30/25/14
f 26/45/15 30/46/15 29/47/15 25/48/15
f 32/49/16 28/50/16 27/32/16 31/31/16
f 30/46/17 34/51/17 33/52/17 29/47/17
f 36/53/18 32/49/18 31/31/18 35/42/18
f 34/51/19 38/54/19 37/55/19 33/52/19
f 40/56/20 36/53/20 35/42/20 39/41/20
f 38/54/21 42/57/21 41/58/21 37/55/21
f 44/59/22 40/56/22 39/41/22 43/40/22
f 42/57/23 46/60/23 45/61/23 41/58/23
f 48/62/24 44/59/24 43/40/24 47/39/24
f 46/60/25 50/63/25 49/64/25 45/61/25
f 52/65/26 48/62/26 47/39/26 51/38/26
f 50/63/27 54/66/27 53/27/27 49/64/27
f 56/67/28 52/65/28 51/38/28 55/37/28
f 54/66/29 58/68/29 57/28/29 53/27/29
f 60/69/30 56/67/30 55/37/30 59/36/30
f 58/68/31 62/70/31 61/71/31 57/28/31
f 64/72/32 60/69/32 59/36/32 63/35/32
f 62/70/33 66/73/33 65/74/33 61/71/33
f 68/75/34 64/72/34 63/35/34 67/34/34
f 66/73/35 70/76/35 69/77/35 65/74/35
f 72/78/36 68/75/36 67/34/36 71/33/36
f 70/76/37 26/45/37 25/48/37 69/77/37
f 28/50/38 72/78/38 71/33/38 27/32/38
f 37/55/12 41/58/12 20/79/12 21/80/12
f 33/52/12 37/55/12 21/80/12 22/81/12
f 49/64/12 53/27/12 17/30/12 18/82/12
f 65/74/12 69/77/12 13/83/12 14/84/12
f 25/48/12 29/47/12 23/85/12 24/86/12
f 29/47/12 33/52/12 22/81/12 23/85/12
f 45/61/12 49/64/12 18/82/12 19/87/12
f 61/71/12 65/74/12 14/84/12 15/88/12
f 41/58/12 45/61/12 19/87/12 20/79/12
f 69/77/12 25/48/12 24/86/12 13/83/12
f 57/28/12 61/71/12 15/88/12 16/29/12
f 18/82/39 17/30/39 8/89/39 7/90/39
f 15/88/40 14/84/40 11/91/40 10/92/40
f 22/81/41 21/80/41 4/93/41 3/94/41
f 19/87/42 18/82/42 7/90/42 6/95/42
f 16/29/43 15/88/43 10/92/43 9/96/43
f 23/85/44 22/81/44 3/94/44 2/97/44
f 13/83/45 24/86/45 1/98/45 12/99/45
f 20/79/46 19/87/46 6/95/46 5/100/46
f 17/30/47 16/29/47 9/96/47 8/89/47
f 24/86/48 23/85/48 2/97/48 1/98/48
f 14/84/49 13/83/49 12/99/49 11/91/49
f 21/80/50 20/79/50 5/100/50 4/93/50
f 2/97/12 3/94/12 4/93/12 5/100/12 6/95/12 7/90/12 8/89/12 9/96/12 10/92/12 11/91/12 12/99/12 1/98/12
