# Blender v3.2.1 OBJ File: 'apt_a1.blend'
# www.blender.org
mtllib apt_a1.mtl
o Cube.001
v -1.098998 0.147066 -0.333688
v -1.098998 3.166649 -0.333688
v -1.079899 3.166649 -0.336327
v -1.079899 0.147066 -0.336327
v -1.104475 0.147066 0.643955
v -1.104475 3.166649 0.643955
v -1.104475 3.166649 0.706789
v -1.104475 0.147066 0.706789
v -1.089448 0.147066 0.620914
v -1.089448 3.166649 0.620914
v -1.089448 3.166648 0.729830
v -1.089448 0.147066 0.729830
v -0.834124 3.166648 0.762596
v -0.834124 0.166648 0.762596
v -1.030725 3.166648 0.762596
v -1.030725 0.166648 0.762596
v -1.048861 3.166648 0.729830
v -1.048861 0.147066 0.729830
v -0.808613 3.166648 0.729830
v -0.808613 0.147066 0.729830
v 0.945387 3.166648 0.729830
v 0.945387 0.147066 0.729830
v 1.054303 0.147066 0.729830
v 1.054303 3.166648 0.729830
v -0.011854 0.147066 0.720280
v -0.011854 3.166648 0.720280
v -0.009214 3.166648 0.739380
v -0.009214 0.147066 0.739380
v -0.434622 0.147066 0.729908
v -0.434622 3.166648 0.729908
v -0.423058 3.166648 0.719210
v -0.423058 0.147066 0.719210
v -0.268519 3.166648 0.719612
v -0.268519 0.147066 0.719612
v -0.099546 3.166648 0.720052
v -0.099546 0.147066 0.720052
v -0.114662 0.166648 0.763692
v -0.252228 0.166648 0.763252
v -0.252228 3.166648 0.763252
v -0.114662 3.166648 0.763692
v -1.078828 3.166648 -0.747531
v -1.078828 0.147066 -0.747531
v -1.079231 3.166649 -0.592992
v -1.079231 0.147066 -0.592992
v -1.079670 3.166649 -0.424020
v -1.079670 0.147066 -0.424020
v -1.123311 0.166648 -0.439135
v -1.122870 0.166648 -0.576701
v -1.122870 3.166649 -0.576701
v -1.123311 3.166649 -0.439135
v -1.123311 3.166649 0.068565
v -1.123311 0.166648 0.068565
v -1.121911 3.166649 0.208426
v -1.121911 0.166648 0.208426
v -1.093575 3.166649 0.222744
v -1.093575 0.147066 0.222744
v -1.094974 3.166649 0.054246
v -1.094974 0.147066 0.054246
v 1.074473 0.147066 0.315985
v 1.074473 3.166649 0.315985
v 1.055374 3.166649 0.318625
v 1.055374 0.147066 0.318625
v 1.079950 0.147066 -0.661657
v 1.079950 3.166649 -0.661657
v 1.079950 3.166649 -0.724492
v 1.079950 0.147066 -0.724492
v 1.064923 0.147066 -0.638616
v 1.064923 3.166649 -0.638616
v 1.064923 3.166648 -0.747532
v 1.064923 0.147066 -0.747532
v 0.809599 3.166648 -0.780298
v 0.809599 0.166648 -0.780298
v 1.006199 3.166648 -0.780298
v 1.006199 0.166648 -0.780298
v 1.024336 3.166648 -0.747532
v 1.024336 0.147066 -0.747532
v 0.784088 3.166648 -0.747532
v 0.784088 0.147066 -0.747532
v 1.054706 3.166649 0.575290
v 1.054706 0.147066 0.575290
v 1.055146 3.166649 0.406317
v 1.055146 0.147066 0.406317
v 1.098786 0.166648 0.421433
v 1.098346 0.166648 0.558999
v 1.098346 3.166649 0.558999
v 1.098786 3.166649 0.421433
v 1.098786 3.166649 -0.086267
v 1.098786 0.166648 -0.086267
v 1.097387 3.166649 -0.226128
v 1.097387 0.166648 -0.226128
v 1.069050 3.166649 -0.240447
v 1.069050 0.147066 -0.240447
v 1.070449 3.166649 -0.071949
v 1.070449 0.147066 -0.071949
v 1.139743 3.166649 0.817395
v -1.175739 3.166649 0.817394
v -1.164268 3.166648 -0.835096
v 1.151214 3.166648 -0.835097
v 0.390040 3.166648 0.763579
v 0.390040 0.166648 0.763579
v 0.529901 3.166648 0.762180
v 0.529901 0.166648 0.762180
v 0.544219 3.166648 0.733843
v 0.375721 3.166648 0.735242
v -0.969912 0.147066 -0.747532
v -0.969912 3.166648 -0.747532
v 0.784088 0.147065 -0.747532
v 0.784088 3.166648 -0.747532
v 0.375721 0.147066 0.735242
v 0.544219 0.147066 0.733843
v -0.012671 0.147066 -0.737982
v -0.012671 3.166648 -0.737982
v -0.015311 3.166648 -0.757081
v -0.015311 0.147066 -0.757081
v 0.410097 0.147066 -0.747610
v 0.410097 3.166648 -0.747610
v 0.398533 3.166648 -0.736911
v 0.398533 0.147066 -0.736911
v 0.243994 3.166648 -0.737314
v 0.243994 0.147066 -0.737314
v 0.075021 3.166648 -0.737754
v 0.075021 0.147066 -0.737754
v 0.090137 0.166648 -0.781394
v 0.227703 0.166648 -0.780954
v 0.227703 3.166648 -0.780954
v 0.090137 3.166648 -0.781394
v -0.414565 3.166648 -0.781281
v -0.414565 0.166648 -0.781281
v -0.554426 3.166648 -0.779881
v -0.554426 0.166648 -0.779881
v -0.568744 3.166648 -0.751545
v -0.400246 3.166648 -0.752944
v -0.400246 0.147066 -0.752944
v -0.568744 0.147066 -0.751545
vt 0.380627 2.185678
vt 0.325978 2.185678
vt 0.325978 0.823570
vt 0.380627 0.823570
vt 0.707555 2.185678
vt 0.501899 2.185678
vt 0.501899 0.817812
vt 0.707555 0.817812
vt 0.492178 2.185678
vt 0.492178 0.817812
vt 0.280953 0.728604
vt 0.263503 0.728568
vt 0.263503 0.268333
vt 0.280953 0.268369
vt 0.268605 -0.194822
vt 0.286755 -0.194822
vt 0.286755 1.185883
vt 0.268606 1.185883
vt 0.251155 -0.194931
vt 0.251156 1.185775
vt 0.016456 2.185678
vt 0.000100 2.185678
vt 0.000100 0.804967
vt 0.016456 0.804967
vt 0.098997 1.185979
vt 0.081546 1.185838
vt 0.081546 -0.185979
vt 0.098997 -0.194793
vt 0.039217 -0.194934
vt 0.056667 -0.185838
vt 0.056667 1.185980
vt 0.039217 1.185838
vt 0.113271 2.185678
vt 0.016456 2.185678
vt 0.016456 0.813922
vt 0.113271 0.813922
vt 0.318852 2.185678
vt 0.113271 2.185678
vt 0.113271 0.823570
vt 0.318852 0.823570
vt 0.501899 2.185678
vt 0.492178 2.185678
vt 0.492178 0.817812
vt 0.501899 0.817812
vt 0.702909 2.185678
vt 0.702908 0.817812
vt 0.325978 2.185678
vt 0.325978 0.823570
vt 0.381120 2.185678
vt 0.381120 0.823958
vt 0.386369 -0.176379
vt 0.403819 -0.167257
vt 0.403819 1.186078
vt 0.386369 1.185910
vt 0.464054 2.185678
vt 0.464054 0.817812
vt 0.456735 2.185678
vt 0.388440 2.185678
vt 0.388440 0.832524
vt 0.456735 0.832524
vt 0.451737 1.185886
vt 0.434362 1.185718
vt 0.434362 -0.167284
vt 0.451737 -0.176069
vt 0.428429 0.817386
vt 0.410979 0.826508
vt 0.410979 2.184139
vt 0.428429 2.183971
vt 0.463129 2.185678
vt 0.463129 0.817812
vt 0.456735 2.185678
vt 0.388440 2.185678
vt 0.388440 0.826373
vt 0.456735 0.826373
vt 0.402665 2.179790
vt 0.385290 2.179623
vt 0.385290 0.826152
vt 0.402665 0.817404
vt 0.707922 2.189087
vt 0.725373 2.188895
vt 0.725373 0.817812
vt 0.707922 0.808123
vt 0.784983 2.185678
vt 0.711949 2.185678
vt 0.711949 0.817812
vt 0.784983 0.817812
vt 1.000379 2.185678
vt 0.791184 2.185678
vt 0.791184 0.817812
vt 1.000378 0.817812
vt 0.733583 0.808123
vt 0.716132 0.817812
vt 0.716132 2.187411
vt 0.733583 2.187218
vt 0.380627 2.185678
vt 0.325978 2.185678
vt 0.325978 0.825120
vt 0.380627 0.825120
vt 0.707555 2.185678
vt 0.501899 2.185678
vt 0.501899 0.817812
vt 0.707555 0.817812
vt 0.492178 2.185678
vt 0.492178 0.817812
vt 0.280953 0.728604
vt 0.263503 0.728568
vt 0.263503 0.268333
vt 0.280953 0.268369
vt 0.268605 -0.194823
vt 0.286755 -0.194822
vt 0.286755 1.185883
vt 0.268606 1.185883
vt 0.251155 -0.194931
vt 0.251156 1.185775
vt 0.016456 2.185678
vt 0.000100 2.185678
vt 0.000100 0.804967
vt 0.016456 0.804967
vt 0.098997 1.185979
vt 0.081546 1.185838
vt 0.081546 -0.185979
vt 0.098997 -0.194793
vt 0.039217 -0.194934
vt 0.056667 -0.185838
vt 0.056667 1.185980
vt 0.039217 1.185838
vt 0.113271 2.185678
vt 0.016456 2.185678
vt 0.016456 0.813922
vt 0.113271 0.813922
vt 0.428429 -0.194934
vt 0.410979 -0.185812
vt 0.410979 1.185979
vt 0.428429 1.185812
vt 0.463129 2.185678
vt 0.463129 0.817812
vt 0.456735 2.185678
vt 0.388440 2.185678
vt 0.388440 0.813922
vt 0.456735 0.813922
vt 0.402665 1.181631
vt 0.385290 1.181463
vt 0.385290 -0.184458
vt 0.402665 -0.193207
vt 0.707922 2.189087
vt 0.725373 2.188895
vt 0.725373 0.817812
vt 0.707922 0.808168
vt 0.784983 2.185678
vt 0.711949 2.185678
vt 0.711949 0.817812
vt 0.784983 0.817812
vt 1.000379 2.185678
vt 0.791184 2.185678
vt 0.791184 0.817812
vt 1.000378 0.817812
vt 0.733583 0.808168
vt 0.716132 0.817812
vt 0.716132 2.190898
vt 0.733583 2.190706
vt 0.231094 0.394013
vt 0.347595 0.393205
vt 0.347595 0.229962
vt 0.231094 0.230771
vt 0.318852 2.185678
vt 0.113271 2.185678
vt 0.113271 0.825120
vt 0.318852 0.825120
vt 0.707922 2.195923
vt 0.725373 2.195731
vt 0.725373 0.827089
vt 0.707922 0.817324
vt 0.784983 2.185678
vt 0.711949 2.185678
vt 0.711949 0.827089
vt 0.784983 0.827089
vt 0.325978 2.185678
vt 0.325978 0.825120
vt 0.702909 2.185678
vt 0.501899 2.185678
vt 0.501899 0.817812
vt 0.702908 0.817812
vt 0.492178 2.185678
vt 0.492178 0.817812
vt 1.000379 2.185678
vt 0.790894 2.185678
vt 0.790894 0.817812
vt 1.000379 0.817812
vt 0.733583 0.817324
vt 0.716132 0.827089
vt 0.716132 2.194247
vt 0.733583 2.194054
vt 0.381120 2.185678
vt 0.381120 0.825120
vt 0.386369 -0.194934
vt 0.403819 -0.185812
vt 0.403819 1.185979
vt 0.386369 1.185812
vt 0.464054 2.185678
vt 0.464054 0.817812
vt 0.456735 2.185678
vt 0.388440 2.185678
vt 0.388440 0.813922
vt 0.456735 0.813922
vt 0.451737 1.185787
vt 0.434362 1.185620
vt 0.434362 -0.185839
vt 0.451737 -0.194624
vt 0.707922 2.189087
vt 0.725373 2.188895
vt 0.725373 0.817812
vt 0.707922 0.810255
vt 0.784983 2.185678
vt 0.711949 2.185678
vt 0.711949 0.817812
vt 0.784983 0.817812
vt 1.000379 2.185678
vt 0.790894 2.185678
vt 0.790894 0.817812
vt 1.000379 0.817812
vt 0.733583 0.807736
vt 0.716132 0.817812
vt 0.716132 2.187411
vt 0.733583 2.187218
vn -1.0000 -0.0000 -0.0026
vn -0.9999 0.0000 0.0104
vn -0.1369 0.0000 -0.9906
vn -0.8376 0.0000 0.5463
vn -1.0000 0.0000 0.0000
vn -0.8376 0.0000 -0.5463
vn 0.0000 0.0000 1.0000
vn 0.7891 0.0000 0.6143
vn -0.8749 0.0000 0.4843
vn -0.0002 0.0000 1.0000
vn -0.9906 0.0000 0.1369
vn 0.0107 0.0000 0.9999
vn 0.6791 0.0000 0.7340
vn -0.0026 0.0000 1.0000
vn -0.9369 0.0000 0.3497
vn -0.0032 0.0000 1.0000
vn 0.9449 0.0000 0.3273
vn -0.3497 0.0000 -0.9369
vn -1.0000 0.0000 -0.0032
vn -0.3273 0.0000 0.9449
vn -0.4510 0.0000 0.8925
vn -0.9999 0.0000 0.0100
vn -0.4510 0.0000 -0.8925
vn 1.0000 0.0000 0.0026
vn 0.9999 0.0000 -0.0104
vn 0.1369 0.0000 0.9906
vn 0.8376 0.0000 -0.5463
vn 1.0000 0.0000 0.0000
vn 0.8376 -0.0000 0.5463
vn 0.0000 0.0000 -1.0000
vn -0.7891 0.0000 -0.6143
vn 0.8749 0.0000 -0.4843
vn 0.3497 0.0000 0.9369
vn 1.0000 0.0000 0.0032
vn 0.3273 0.0000 -0.9449
vn 0.4510 0.0000 -0.8925
vn 0.9999 0.0000 -0.0100
vn 0.4510 0.0000 0.8925
vn 0.0000 -1.0000 0.0000
vn 0.0002 0.0000 -1.0000
vn 0.8925 0.0000 0.4510
vn 0.0100 0.0000 0.9999
vn -0.6791 0.0000 -0.7340
vn -0.0107 0.0000 -0.9999
vn 0.9906 0.0000 -0.1369
vn -0.8925 0.0000 0.4510
vn 0.0026 0.0000 -1.0000
vn 0.9369 0.0000 -0.3497
vn 0.0032 0.0000 -1.0000
vn -0.9449 0.0000 -0.3273
vn -0.8925 0.0000 -0.4510
vn -0.0100 0.0000 -0.9999
vn 0.8925 0.0000 -0.4510
usemtl Material.001
s off
f 43/1/1 41/2/1 42/3/1 44/4/1
f 57/5/2 2/6/2 1/7/2 58/8/2
f 2/6/3 3/9/3 4/10/3 1/7/3
f 11/11/4 7/12/4 8/13/4 12/14/4
f 5/15/5 8/16/5 7/17/5 6/18/5
f 9/19/6 5/15/6 6/18/6 10/20/6
f 17/21/7 11/22/7 12/23/7 18/24/7
f 19/25/8 13/26/8 14/27/8 20/28/8
f 18/29/9 16/30/9 15/31/9 17/32/9
f 13/33/7 15/34/7 16/35/7 14/36/7
f 30/37/10 19/38/10 20/39/10 29/40/10
f 27/41/11 26/42/11 25/43/11 28/44/11
f 104/45/12 27/41/12 28/44/12 109/46/12
f 31/47/13 30/37/13 29/40/13 32/48/13
f 33/49/14 31/47/14 32/48/14 34/50/14
f 34/51/15 38/52/15 39/53/15 33/54/15
f 26/42/14 35/55/14 36/56/14 25/43/14
f 40/57/16 39/58/16 38/59/16 37/60/16
f 35/61/17 40/62/17 37/63/17 36/64/17
f 44/65/18 48/66/18 49/67/18 43/68/18
f 3/9/1 45/69/1 46/70/1 4/10/1
f 50/71/19 49/72/19 48/73/19 47/74/19
f 45/75/20 50/76/20 47/77/20 46/78/20
f 55/79/21 53/80/21 54/81/21 56/82/21
f 53/83/22 51/84/22 52/85/22 54/86/22
f 10/87/2 55/88/2 56/89/2 9/90/2
f 58/91/23 52/92/23 51/93/23 57/94/23
f 79/95/24 24/96/24 23/97/24 80/98/24
f 93/99/25 60/100/25 59/101/25 94/102/25
f 60/100/26 61/103/26 62/104/26 59/101/26
f 69/105/27 65/106/27 66/107/27 70/108/27
f 63/109/28 66/110/28 65/111/28 64/112/28
f 67/113/29 63/109/29 64/112/29 68/114/29
f 75/115/30 69/116/30 70/117/30 76/118/30
f 77/119/31 71/120/31 72/121/31 78/122/31
f 76/123/32 74/124/32 73/125/32 75/126/32
f 71/127/30 73/128/30 74/129/30 72/130/30
f 80/131/33 84/132/33 85/133/33 79/134/33
f 61/103/24 81/135/24 82/136/24 62/104/24
f 86/137/34 85/138/34 84/139/34 83/140/34
f 81/141/35 86/142/35 83/143/35 82/144/35
f 91/145/36 89/146/36 90/147/36 92/148/36
f 89/149/37 87/150/37 88/151/37 90/152/37
f 68/153/25 91/154/25 92/155/25 67/156/25
f 94/157/38 88/158/38 87/159/38 93/160/38
f 98/161/39 95/162/39 96/163/39 97/164/39
f 116/165/40 108/166/40 107/167/40 115/168/40
f 103/169/41 101/170/41 102/171/41 110/172/41
f 101/173/42 99/174/42 100/175/42 102/176/42
f 117/177/43 116/165/43 115/168/43 118/178/43
f 132/179/44 113/180/44 114/181/44 133/182/44
f 113/180/45 112/183/45 111/184/45 114/181/45
f 21/185/42 103/186/42 110/187/42 22/188/42
f 109/189/46 100/190/46 99/191/46 104/192/46
f 119/193/47 117/177/47 118/178/47 120/194/47
f 120/195/48 124/196/48 125/197/48 119/198/48
f 112/183/47 121/199/47 122/200/47 111/184/47
f 126/201/49 125/202/49 124/203/49 123/204/49
f 121/205/50 126/206/50 123/207/50 122/208/50
f 131/209/51 129/210/51 130/211/51 134/212/51
f 129/213/52 127/214/52 128/215/52 130/216/52
f 106/217/52 131/218/52 134/219/52 105/220/52
f 133/221/53 128/222/53 127/223/53 132/224/53
