# Blender v3.0.1 OBJ File: 'scalemesh.blend'
# www.blender.org
mtllib scalemesh.mtl
o Cube
v 0.303004 1.697887 -0.303004
v 0.303004 0.000000 -0.303004
v -0.303004 1.697887 -0.303004
v -0.303004 0.000000 -0.303004
v 0.303004 1.697886 0.303004
v -0.303004 1.697886 0.303004
v -0.303004 0.000000 0.303004
v 0.303004 0.000000 0.303004
vt 0.997172 0.002117
vt 0.997172 1.006956
vt 0.010535 1.006956
vt 0.010535 0.002117
vt 0.010535 1.006956
vt 0.010535 0.002117
vt 0.997172 0.002117
vt 0.997172 1.006956
vt 0.997172 0.002117
vt 0.997172 1.006956
vt 0.010535 1.006956
vt 0.010535 0.002117
vt 0.997171 0.002117
vt 0.997171 1.006956
vt 0.010535 1.006956
vt 0.010534 0.002117
vt 0.518809 0.649718
vt 0.607833 0.649718
vt 0.607833 0.682079
vt 0.518809 0.682079
vt 0.607833 0.649718
vt 0.607833 0.682079
vt 0.518809 0.682079
vt 0.518809 0.649718
vn 1.0000 0.0000 0.0000
vn -1.0000 0.0000 0.0000
vn 0.0000 0.0000 -1.0000
vn 0.0000 0.0000 1.0000
vn 0.0000 1.0000 0.0000
vn 0.0000 -1.0000 0.0000
usemtl Material
s off
f 2/1/1 1/2/1 5/3/1 8/4/1
f 7/5/2 6/6/2 3/7/2 4/8/2
f 4/9/3 3/10/3 1/11/3 2/12/3
f 8/13/4 5/14/4 6/15/4 7/16/4
f 1/17/5 3/18/5 6/19/5 5/20/5
f 4/21/6 2/22/6 8/23/6 7/24/6
